<?xml version="1.0" standalone="no"?>
<!DOCTYPE svg PUBLIC "-//W3C//DTD SVG 20010904//EN"
 "http://www.w3.org/TR/2001/REC-SVG-20010904/DTD/svg10.dtd">
<svg version="1.0" xmlns="http://www.w3.org/2000/svg"
 width="700.000000pt" height="700.000000pt" viewBox="0 0 700.000000 700.000000"
 preserveAspectRatio="xMidYMid meet">
<metadata>
Created by potrace 1.14, written by Peter Selinger 2001-2017
</metadata>
<g transform="translate(0.000000,700.000000) scale(0.100000,-0.100000)"
fill="#000000" stroke="none">
<path d="M4282 6397 c-56 -19 -130 -77 -645 -499 -320 -263 -595 -488 -610
-500 -16 -13 -43 -35 -60 -49 -52 -42 -719 -588 -756 -617 -18 -15 -38 -32
-45 -37 -12 -11 -157 -130 -189 -155 -11 -8 -24 -20 -31 -25 -6 -6 -58 -49
-116 -95 -58 -47 -111 -91 -118 -98 -8 -7 -30 -25 -50 -40 -21 -15 -39 -30
-42 -33 -3 -4 -61 -52 -130 -109 -69 -56 -143 -116 -165 -135 -22 -18 -115
-94 -206 -168 -92 -75 -176 -149 -188 -166 -72 -100 -71 -248 2 -343 60 -78
97 -93 459 -184 183 -47 342 -86 353 -88 11 -3 82 -20 159 -40 76 -20 148 -38
160 -40 11 -3 57 -14 101 -26 44 -11 89 -22 100 -25 11 -2 44 -11 73 -19 29
-8 53 -14 55 -14 1 0 20 -5 42 -10 22 -6 51 -13 65 -16 57 -12 543 -136 547
-140 3 -3 -21 -51 -54 -107 -32 -57 -65 -116 -73 -131 -8 -15 -130 -229 -271
-475 -141 -247 -266 -464 -277 -483 -11 -19 -43 -75 -72 -125 -29 -49 -63
-109 -76 -132 -13 -24 -54 -96 -91 -160 -37 -64 -72 -138 -79 -164 -46 -176
78 -349 258 -362 119 -9 10 -86 1942 1363 981 736 1795 1354 1810 1372 48 63
72 168 54 237 -35 137 -129 214 -300 247 -13 2 -86 20 -163 40 -77 19 -149 37
-160 40 -11 2 -101 24 -200 49 -99 26 -187 48 -195 49 -8 2 -224 56 -480 121
-256 64 -474 118 -485 121 -11 2 -67 17 -126 32 l-105 27 207 485 c115 267
217 505 228 530 11 25 68 158 127 295 58 138 114 268 124 290 64 146 74 178
73 244 -2 200 -194 335 -381 268z"/>
</g>
</svg>
